<?xml version="1.0" encoding="UTF-8"?><svg width="124.354mm" height="69.85mm" viewBox="0 0 470 264" xmlns="http://www.w3.org/2000/svg" xmlns:xlink="http://www.w3.org/1999/xlink"><g fill="none" stroke="black" stroke-width="1" fill-rule="evenodd" stroke-linecap="square" stroke-linejoin="bevel"><g clip-path="none" fill="#ffffff" fill-opacity="1" opacity="1" stroke="none" stroke-opacity="0" transform="matrix(1,0,0,1,0,0)"><path d="M0,0 L469.859,0 L469.859,264 L0,264 L0,0 z" fill-rule="evenodd" vector-effect="none"/></g><defs><clipPath id="clip3"><path d="M-212,-105 L257.859,-105 L257.859,159 L-212,159 L-212,-105 z"/></clipPath></defs><g clip-path="url(#clip3)" fill="#ffffff" fill-opacity="1" opacity="1" stroke="none" stroke-opacity="0" transform="matrix(1,0,0,1,212,105)"><path d="M0,0 L60,0 L60,34 L0,34 L0,0 z" fill-rule="evenodd" vector-effect="none"/></g><defs><clipPath id="clip7"><path d="M0,0 L61,0 L61,35 L0,35 L0,0 z"/></clipPath></defs><g clip-path="url(#clip7)" fill="none" opacity="1" stroke="none" stroke-opacity="0" transform="matrix(1,0,0,1,211.859,105)"><path d="M0,0 L61,0 L61,35 L0,35 L0,0 z" fill-rule="evenodd" vector-effect="none"/></g><defs><clipPath id="clip17"><path d="M-36,-18 L41,-18 L41,22 L-36,22 L-36,-18 z"/></clipPath></defs><g clip-path="url(#clip17)" fill="#000000" fill-opacity="1" opacity="1" stroke="none" stroke-opacity="0" transform="matrix(0.7,0,0,0.7,240.359,120.5)"><path d="M-29.2188,-13.7969 C-29.2188,-14.1562 -29.5312,-14.4844 -29.8906,-14.4844 C-30.2812,-14.4844 -30.5781,-14.1875 -30.5781,-13.8125 C-30.5781,-13.4219 -30.2969,-13.1094 -29.8906,-13.1094 C-29.5156,-13.1094 -29.2188,-13.4219 -29.2188,-13.7969 z" fill-rule="nonzero" vector-effect="none"/></g><defs><clipPath id="clip18"><path d="M-36,-18 L41,-18 L41,22 L-36,22 L-36,-18 z"/></clipPath></defs><g clip-path="url(#clip18)" fill="#000000" fill-opacity="1" opacity="1" stroke="none" stroke-opacity="0" transform="matrix(0.7,0,0,0.7,240.359,120.5)"><path d="M-30.5156,-8.96875 C-30.7188,-9.92188 -30.875,-10.1719 -31.2344,-10.1719 C-31.5469,-10.1719 -32.0156,-10.0781 -32.875,-9.76562 L-33.0312,-9.71875 L-32.9844,-9.48438 L-32.7344,-9.5625 C-32.4688,-9.625 -32.2969,-9.65625 -32.1875,-9.65625 C-31.8281,-9.65625 -31.7344,-9.54688 -31.5469,-8.70312 L-31.1406,-6.96875 L-32.2969,-5.34375 C-32.5938,-4.92188 -32.8594,-4.65625 -33.0156,-4.65625 C-33.0938,-4.65625 -33.2344,-4.70312 -33.375,-4.78125 C-33.5625,-4.875 -33.7031,-4.9375 -33.8281,-4.9375 C-34.1094,-4.9375 -34.2969,-4.71875 -34.2969,-4.4375 C-34.2969,-4.0625 -34.0312,-3.84375 -33.5938,-3.84375 C-33.1719,-3.84375 -32.8906,-3.96875 -32.2656,-4.79688 L-31.0312,-6.46875 L-30.625,-4.79688 C-30.4688,-4.09375 -30.25,-3.84375 -29.7969,-3.84375 C-29.2656,-3.84375 -28.9062,-4.1875 -28.0938,-5.4375 L-28.3125,-5.5625 C-28.4219,-5.42188 -28.4688,-5.34375 -28.5938,-5.17188 C-28.9219,-4.75 -29.0781,-4.60938 -29.25,-4.60938 C-29.4531,-4.60938 -29.5781,-4.79688 -29.6719,-5.1875 L-30.125,-7.0625 C-30.2031,-7.40625 -30.2344,-7.59375 -30.2344,-7.70312 C-29.625,-8.78125 -29.125,-9.39062 -28.8594,-9.39062 C-28.5312,-9.39062 -28.4062,-9.15625 -28.1406,-9.15625 C-27.8594,-9.15625 -27.6562,-9.35938 -27.6562,-9.65625 C-27.6562,-9.96875 -27.9062,-10.1719 -28.2344,-10.1719 C-28.8438,-10.1719 -29.375,-9.67188 -30.3438,-8.17188 L-30.5156,-8.96875 z" fill-rule="nonzero" vector-effect="none"/></g><defs><clipPath id="clip19"><path d="M-36,-18 L41,-18 L41,22 L-36,22 L-36,-18 z"/></clipPath></defs><g clip-path="url(#clip19)" fill="#000000" fill-opacity="1" opacity="1" stroke="none" stroke-opacity="0" transform="matrix(0.7,0,0,0.7,240.359,120.5)"><path d="M-14.9219,-8.48438 L-14.9219,-9.40625 L-23.1719,-9.40625 L-23.1719,-8.48438 L-14.9219,-8.48438 M-14.9219,-5.6875 L-14.9219,-6.60938 L-23.1719,-6.60938 L-23.1719,-5.6875 L-14.9219,-5.6875" fill-rule="nonzero" vector-effect="none"/></g><defs><clipPath id="clip20"><path d="M-36,-18 L41,-18 L41,22 L-36,22 L-36,-18 z"/></clipPath></defs><g clip-path="url(#clip20)" fill="#000000" fill-opacity="1" opacity="1" stroke="none" stroke-opacity="0" transform="matrix(0.7,0,0,0.7,240.359,120.5)"><path d="M-1.07812,-3.98438 L-1.07812,-4.20312 C-1.82812,-4.26562 -1.98438,-4.42188 -2.17188,-5.59375 L-3.46875,-13.3594 L-3.82812,-13.3594 L-7.82812,-6.39062 C-8.875,-4.57812 -9.04688,-4.34375 -9.70312,-4.20312 L-9.70312,-3.98438 L-7.09375,-3.98438 L-7.09375,-4.20312 C-7.75,-4.23438 -7.96875,-4.40625 -7.96875,-4.67188 C-7.96875,-4.89062 -7.84375,-5.23438 -7.65625,-5.59375 L-6.82812,-7.15625 L-3.75,-7.15625 L-3.46875,-5.3125 C-3.45312,-5.1875 -3.4375,-5.0625 -3.4375,-4.95312 C-3.4375,-4.46875 -3.64062,-4.25 -4.51562,-4.20312 L-4.51562,-3.98438 L-1.07812,-3.98438 M-3.8125,-7.65625 L-6.53125,-7.65625 L-4.45312,-11.3438 L-3.8125,-7.65625" fill-rule="nonzero" vector-effect="none"/></g><defs><clipPath id="clip21"><path d="M-36,-18 L41,-18 L41,22 L-36,22 L-36,-18 z"/></clipPath></defs><g clip-path="url(#clip21)" fill="#000000" fill-opacity="1" opacity="1" stroke="none" stroke-opacity="0" transform="matrix(0.7,0,0,0.7,240.359,120.5)"><path d="M2.96875,-8.96875 C2.76562,-9.92188 2.60938,-10.1719 2.25,-10.1719 C1.9375,-10.1719 1.46875,-10.0781 0.609375,-9.76562 L0.453125,-9.71875 L0.5,-9.48438 L0.75,-9.5625 C1.01562,-9.625 1.1875,-9.65625 1.29688,-9.65625 C1.65625,-9.65625 1.75,-9.54688 1.9375,-8.70312 L2.34375,-6.96875 L1.1875,-5.34375 C0.890625,-4.92188 0.625,-4.65625 0.46875,-4.65625 C0.390625,-4.65625 0.25,-4.70312 0.109375,-4.78125 C-0.078125,-4.875 -0.21875,-4.9375 -0.34375,-4.9375 C-0.625,-4.9375 -0.8125,-4.71875 -0.8125,-4.4375 C-0.8125,-4.0625 -0.546875,-3.84375 -0.109375,-3.84375 C0.3125,-3.84375 0.59375,-3.96875 1.21875,-4.79688 L2.45312,-6.46875 L2.85938,-4.79688 C3.01562,-4.09375 3.23438,-3.84375 3.6875,-3.84375 C4.21875,-3.84375 4.57812,-4.1875 5.39062,-5.4375 L5.17188,-5.5625 C5.0625,-5.42188 5.01562,-5.34375 4.89062,-5.17188 C4.5625,-4.75 4.40625,-4.60938 4.23438,-4.60938 C4.03125,-4.60938 3.90625,-4.79688 3.8125,-5.1875 L3.35938,-7.0625 C3.28125,-7.40625 3.25,-7.59375 3.25,-7.70312 C3.85938,-8.78125 4.35938,-9.39062 4.625,-9.39062 C4.95312,-9.39062 5.07812,-9.15625 5.34375,-9.15625 C5.625,-9.15625 5.82812,-9.35938 5.82812,-9.65625 C5.82812,-9.96875 5.57812,-10.1719 5.25,-10.1719 C4.64062,-10.1719 4.10938,-9.67188 3.14062,-8.17188 L2.96875,-8.96875 z" fill-rule="nonzero" vector-effect="none"/></g><defs><clipPath id="clip22"><path d="M-36,-18 L41,-18 L41,22 L-36,22 L-36,-18 z"/></clipPath></defs><g clip-path="url(#clip22)" fill="#000000" fill-opacity="1" opacity="1" stroke="none" stroke-opacity="0" transform="matrix(0.7,0,0,0.7,240.359,120.5)"><path d="M17.7812,-7.07812 L17.7812,-8 L14.125,-8 L14.125,-11.6562 L13.2031,-11.6562 L13.2031,-8 L9.54688,-8 L9.54688,-7.07812 L13.2031,-7.07812 L13.2031,-3.42188 L14.125,-3.42188 L14.125,-7.07812 L17.7812,-7.07812 z" fill-rule="nonzero" vector-effect="none"/></g><defs><clipPath id="clip23"><path d="M-36,-18 L41,-18 L41,22 L-36,22 L-36,-18 z"/></clipPath></defs><g clip-path="url(#clip23)" fill="#000000" fill-opacity="1" opacity="1" stroke="none" stroke-opacity="0" transform="matrix(0.7,0,0,0.7,240.359,120.5)"><path d="M24.0781,-13.1562 L24.0781,-12.9375 C24.9531,-12.8594 25.1562,-12.7656 25.1562,-12.3594 C25.1562,-12.1562 25.0938,-11.8125 25,-11.4688 L23.2969,-5.32812 C23.0625,-4.46875 22.9062,-4.32812 22.1406,-4.20312 L22.1406,-3.98438 L25.9531,-3.98438 C28.2188,-3.98438 29.7969,-4.90625 29.7969,-6.79688 C29.7969,-7.79688 29.2344,-8.53125 28.0312,-8.90625 L28.0312,-8.92188 C28.6406,-9.04688 29.1562,-9.17188 29.5938,-9.46875 C30.0938,-9.79688 30.4844,-10.2969 30.4844,-11.0469 C30.4844,-12.4531 29.5156,-13.1562 27.5781,-13.1562 L24.0781,-13.1562 M25.7188,-9.09375 L26.6094,-12.2344 C26.75,-12.7344 26.8906,-12.7344 27.4375,-12.7344 C28.5625,-12.7344 29.0781,-12.2656 29.0781,-11.2188 C29.0781,-9.82812 28.0938,-9.09375 26.25,-9.09375 L25.7188,-9.09375 M25.5781,-8.64062 C26.4688,-8.64062 27.0625,-8.5625 27.3438,-8.46875 C27.875,-8.28125 28.2812,-7.67188 28.2812,-6.79688 C28.2812,-5.23438 27.1875,-4.40625 25.5781,-4.40625 C25,-4.40625 24.6406,-4.60938 24.6406,-5 C24.6406,-5.17188 24.8594,-5.89062 25.1406,-6.96875 L25.5781,-8.64062" fill-rule="nonzero" vector-effect="none"/></g><defs><clipPath id="clip24"><path d="M-36,-18 L41,-18 L41,22 L-36,22 L-36,-18 z"/></clipPath></defs><g clip-path="url(#clip24)" fill="#000000" fill-opacity="1" opacity="1" stroke="none" stroke-opacity="0" transform="matrix(0.7,0,0,0.7,240.359,120.5)"><path d="M37.25,-5.67188 C36.5469,-4.73438 36.3125,-4.53125 36.0938,-4.53125 C36,-4.53125 35.9375,-4.60938 35.9375,-4.76562 C35.9375,-4.9375 36.1406,-5.59375 36.2031,-5.85938 L37.3125,-10.0469 L36.2812,-10.0469 C35.5938,-8.17188 35.3906,-7.64062 34.7344,-6.64062 C33.8594,-5.32812 33.2188,-4.59375 32.75,-4.59375 C32.5312,-4.59375 32.4688,-4.73438 32.4688,-4.9375 C32.4688,-5 32.4844,-5.125 32.5,-5.15625 L33.75,-10.1406 L33.7031,-10.1719 C32.8906,-10 32.3906,-9.89062 31.5938,-9.79688 L31.5938,-9.60938 C32.125,-9.60938 32.1719,-9.59375 32.2969,-9.51562 C32.375,-9.48438 32.4531,-9.35938 32.4531,-9.26562 C32.4531,-9.15625 32.3594,-8.79688 32.25,-8.32812 L31.7656,-6.375 C31.5156,-5.35938 31.3906,-4.85938 31.3906,-4.59375 C31.3906,-4.0625 31.6406,-3.84375 32.125,-3.84375 C33.125,-3.84375 33.8281,-4.59375 35.4688,-7.3125 C35.0312,-5.79688 34.8438,-4.85938 34.8438,-4.54688 C34.8438,-4.10938 35.0938,-3.875 35.5156,-3.875 C36.1719,-3.875 36.5469,-4.15625 37.4531,-5.54688 L37.25,-5.67188 z" fill-rule="nonzero" vector-effect="none"/></g><defs><clipPath id="clip25"><path d="M-36,-18 L41,-18 L41,22 L-36,22 L-36,-18 z"/></clipPath></defs><g clip-path="url(#clip25)" fill="#000000" fill-opacity="1" opacity="1" stroke="none" stroke-opacity="0" transform="matrix(0.7,0,0,0.7,240.359,120.5)"><path d="M-30.2344,14.3906 C-30.4688,13.1406 -31.2188,10.8281 -31.4219,10.8281 L-31.4844,10.8281 C-32.2344,10.9375 -32.7031,11.0156 -32.9844,11.0781 C-33.125,11.1094 -33.2812,11.125 -33.4375,11.1562 L-33.4375,11.3906 C-33.2812,11.3594 -33.1562,11.3438 -33,11.3438 C-32.4375,11.3438 -32.1875,11.5469 -31.9219,12.2344 C-31.5469,13.1875 -30.7656,16.3281 -30.7656,16.8906 C-30.7656,17.0469 -30.8281,17.2031 -30.9062,17.375 C-31.0156,17.5625 -31.6562,18.3906 -31.9062,18.6562 C-32.2188,19 -32.3906,19.1094 -32.5781,19.1094 C-32.9375,19.1094 -32.9375,18.7188 -33.4375,18.7188 C-33.7344,18.7188 -33.9844,18.9688 -33.9844,19.2812 C-33.9844,19.6406 -33.6875,19.8906 -33.2656,19.8906 C-32.4688,19.8906 -30.9688,18.2812 -29.5156,15.8594 C-28.3438,13.9375 -27.6719,12.3906 -27.6719,11.5938 C-27.6719,11.1719 -27.9844,10.8281 -28.4062,10.8281 C-28.7188,10.8281 -28.9688,11.0312 -28.9688,11.3438 C-28.9688,11.5625 -28.875,11.7031 -28.5938,11.8906 C-28.3281,12.0625 -28.2344,12.1406 -28.2344,12.3281 C-28.2344,12.9531 -28.75,13.9531 -29.9375,15.9375 L-30.2344,14.3906 z" fill-rule="nonzero" vector-effect="none"/></g><defs><clipPath id="clip26"><path d="M-36,-18 L41,-18 L41,22 L-36,22 L-36,-18 z"/></clipPath></defs><g clip-path="url(#clip26)" fill="#000000" fill-opacity="1" opacity="1" stroke="none" stroke-opacity="0" transform="matrix(0.7,0,0,0.7,240.359,120.5)"><path d="M-14.6406,12.5156 L-14.6406,11.5938 L-22.8906,11.5938 L-22.8906,12.5156 L-14.6406,12.5156 M-14.6406,15.3125 L-14.6406,14.3906 L-22.8906,14.3906 L-22.8906,15.3125 L-14.6406,15.3125" fill-rule="nonzero" vector-effect="none"/></g><defs><clipPath id="clip27"><path d="M-36,-18 L41,-18 L41,22 L-36,22 L-36,-18 z"/></clipPath></defs><g clip-path="url(#clip27)" fill="#000000" fill-opacity="1" opacity="1" stroke="none" stroke-opacity="0" transform="matrix(0.7,0,0,0.7,240.359,120.5)"><path d="M-0.453125,7.70312 L-0.75,7.70312 C-0.859375,7.92188 -1,8 -1.28125,8 C-1.40625,8 -1.57812,8 -1.85938,7.90625 C-2.45312,7.70312 -3.03125,7.67188 -3.5,7.67188 C-4.60938,7.67188 -5.67188,8.04688 -6.5625,8.6875 C-8.10938,9.78125 -9.1875,11.625 -9.1875,13.5938 C-9.1875,15.9062 -7.67188,17.25 -5.53125,17.25 C-4.09375,17.25 -2.96875,16.6562 -1.70312,15.1719 L-1.95312,14.9531 C-3.17188,16.2188 -4.01562,16.625 -5.17188,16.625 C-6.71875,16.625 -7.60938,15.7188 -7.60938,13.75 C-7.60938,12.2031 -7.10938,10.6094 -6.10938,9.53125 C-5.32812,8.70312 -4.35938,8.17188 -3.3125,8.17188 C-2.07812,8.17188 -1.39062,8.95312 -1.23438,10.4531 L-0.96875,10.5 L-0.453125,7.70312 z" fill-rule="nonzero" vector-effect="none"/></g><defs><clipPath id="clip28"><path d="M-36,-18 L41,-18 L41,22 L-36,22 L-36,-18 z"/></clipPath></defs><g clip-path="url(#clip28)" fill="#000000" fill-opacity="1" opacity="1" stroke="none" stroke-opacity="0" transform="matrix(0.7,0,0,0.7,240.359,120.5)"><path d="M2.625,12.0312 C2.42188,11.0781 2.26562,10.8281 1.90625,10.8281 C1.59375,10.8281 1.125,10.9219 0.265625,11.2344 L0.109375,11.2812 L0.15625,11.5156 L0.40625,11.4375 C0.671875,11.375 0.84375,11.3438 0.953125,11.3438 C1.3125,11.3438 1.40625,11.4531 1.59375,12.2969 L2,14.0312 L0.84375,15.6562 C0.546875,16.0781 0.28125,16.3438 0.125,16.3438 C0.046875,16.3438 -0.09375,16.2969 -0.234375,16.2188 C-0.421875,16.125 -0.5625,16.0625 -0.6875,16.0625 C-0.96875,16.0625 -1.15625,16.2812 -1.15625,16.5625 C-1.15625,16.9375 -0.890625,17.1562 -0.453125,17.1562 C-0.03125,17.1562 0.25,17.0312 0.875,16.2031 L2.10938,14.5312 L2.51562,16.2031 C2.67188,16.9062 2.89062,17.1562 3.34375,17.1562 C3.875,17.1562 4.23438,16.8125 5.04688,15.5625 L4.82812,15.4375 C4.71875,15.5781 4.67188,15.6562 4.54688,15.8281 C4.21875,16.25 4.0625,16.3906 3.89062,16.3906 C3.6875,16.3906 3.5625,16.2031 3.46875,15.8125 L3.01562,13.9375 C2.9375,13.5938 2.90625,13.4062 2.90625,13.2969 C3.51562,12.2188 4.01562,11.6094 4.28125,11.6094 C4.60938,11.6094 4.73438,11.8438 5,11.8438 C5.28125,11.8438 5.48438,11.6406 5.48438,11.3438 C5.48438,11.0312 5.23438,10.8281 4.90625,10.8281 C4.29688,10.8281 3.76562,11.3281 2.79688,12.8281 L2.625,12.0312 z" fill-rule="nonzero" vector-effect="none"/></g><defs><clipPath id="clip29"><path d="M-36,-18 L41,-18 L41,22 L-36,22 L-36,-18 z"/></clipPath></defs><g clip-path="url(#clip29)" fill="#000000" fill-opacity="1" opacity="1" stroke="none" stroke-opacity="0" transform="matrix(0.7,0,0,0.7,240.359,120.5)"><path d="M17.4375,13.9219 L17.4375,13 L13.7812,13 L13.7812,9.34375 L12.8594,9.34375 L12.8594,13 L9.20312,13 L9.20312,13.9219 L12.8594,13.9219 L12.8594,17.5781 L13.7812,17.5781 L13.7812,13.9219 L17.4375,13.9219 z" fill-rule="nonzero" vector-effect="none"/></g><defs><clipPath id="clip30"><path d="M-36,-18 L41,-18 L41,22 L-36,22 L-36,-18 z"/></clipPath></defs><g clip-path="url(#clip30)" fill="#000000" fill-opacity="1" opacity="1" stroke="none" stroke-opacity="0" transform="matrix(0.7,0,0,0.7,240.359,120.5)"><path d="M23.7344,7.84375 L23.7344,8.0625 C24.5938,8.09375 24.8125,8.26562 24.8125,8.64062 C24.8125,8.84375 24.75,9.10938 24.6562,9.46875 L22.9375,15.7188 C22.7188,16.5469 22.5781,16.6562 21.7969,16.7969 L21.7969,17.0156 L25.3906,17.0156 C27.0312,17.0156 28.4531,16.6562 29.4688,15.8438 C30.8438,14.7812 31.7188,13.3594 31.7188,11.625 C31.7188,9.15625 30.0781,7.84375 27.625,7.84375 L23.7344,7.84375 M26.25,8.8125 C26.3906,8.3125 26.7031,8.26562 27.2344,8.26562 C28.0469,8.26562 28.625,8.42188 29.0625,8.75 C29.75,9.26562 30.1562,10.1562 30.1562,11.2812 C30.1562,12.7031 29.6094,14.3594 28.6094,15.3281 C27.75,16.1719 26.6562,16.5938 25.2344,16.5938 C24.5938,16.5938 24.2812,16.4375 24.2812,16.0781 C24.2812,15.8906 24.3594,15.6094 24.5938,14.7344 L26.25,8.8125" fill-rule="nonzero" vector-effect="none"/></g><defs><clipPath id="clip31"><path d="M-36,-18 L41,-18 L41,22 L-36,22 L-36,-18 z"/></clipPath></defs><g clip-path="url(#clip31)" fill="#000000" fill-opacity="1" opacity="1" stroke="none" stroke-opacity="0" transform="matrix(0.7,0,0,0.7,240.359,120.5)"><path d="M38.4531,15.3281 C37.75,16.2656 37.5156,16.4688 37.2969,16.4688 C37.2031,16.4688 37.1406,16.3906 37.1406,16.2344 C37.1406,16.0625 37.3438,15.4062 37.4062,15.1406 L38.5156,10.9531 L37.4844,10.9531 C36.7969,12.8281 36.5938,13.3594 35.9375,14.3594 C35.0625,15.6719 34.4219,16.4062 33.9531,16.4062 C33.7344,16.4062 33.6719,16.2656 33.6719,16.0625 C33.6719,16 33.6875,15.875 33.7031,15.8438 L34.9531,10.8594 L34.9062,10.8281 C34.0938,11 33.5938,11.1094 32.7969,11.2031 L32.7969,11.3906 C33.3281,11.3906 33.375,11.4062 33.5,11.4844 C33.5781,11.5156 33.6562,11.6406 33.6562,11.7344 C33.6562,11.8438 33.5625,12.2031 33.4531,12.6719 L32.9688,14.625 C32.7188,15.6406 32.5938,16.1406 32.5938,16.4062 C32.5938,16.9375 32.8438,17.1562 33.3281,17.1562 C34.3281,17.1562 35.0312,16.4062 36.6719,13.6875 C36.2344,15.2031 36.0469,16.1406 36.0469,16.4531 C36.0469,16.8906 36.2969,17.125 36.7188,17.125 C37.375,17.125 37.75,16.8438 38.6562,15.4531 L38.4531,15.3281 z" fill-rule="nonzero" vector-effect="none"/></g><defs><clipPath id="clip48"><path d="M-211.5,-105.5 L258.359,-105.5 L258.359,158.5 L-211.5,158.5 L-211.5,-105.5 z"/></clipPath></defs><g clip-path="url(#clip48)" fill="none" opacity="1" stroke="#000000" stroke-linecap="butt" stroke-linejoin="miter" stroke-miterlimit="2" stroke-opacity="1" stroke-width="1" transform="matrix(1,0,0,1,211.5,105.5)"><path d="M0,0 L60,0 L60,34 L0,34 L0,0 z" fill-rule="evenodd" vector-effect="none"/></g><defs><clipPath id="clip54"><path d="M0,0 L102,0 L102,15 L0,15 L0,0 z"/></clipPath></defs><g clip-path="url(#clip54)" fill="none" opacity="1" stroke="#000000" stroke-linecap="square" stroke-linejoin="bevel" stroke-opacity="1" stroke-width="1" transform="matrix(1,0,0,1,190.93,141)"><text fill="#000000" fill-opacity="1" font-family="Liberation Sans" font-size="10" font-style="normal" font-weight="400" stroke="none" textLength="99.8594" x="1" xml:space="preserve" y="11">Dinâmica da aeronave</text></g><defs><clipPath id="clip62"><path d="M-72,-112 L397.859,-112 L397.859,152 L-72,152 L-72,-112 z"/></clipPath></defs><g clip-path="url(#clip62)" fill="#ffffff" fill-opacity="1" opacity="1" stroke="none" stroke-opacity="0" transform="matrix(1,0,0,1,72,112)"><path d="M20,10 C20,15.5228 15.5228,20 10,20 C4.47715,20 0,15.5228 0,10 C0,4.47715 4.47715,0 10,0 C15.5228,0 20,4.47715 20,10 z" fill-rule="nonzero" vector-effect="none"/></g><defs><clipPath id="clip66"><path d="M-5,-10 L15,-10 L15,10 L-5,10 L-5,-10 z"/></clipPath></defs><g clip-path="url(#clip66)" fill="none" opacity="1" stroke="#000000" stroke-linecap="butt" stroke-linejoin="miter" stroke-miterlimit="2" stroke-opacity="1" stroke-width="1" transform="matrix(1,0,0,1,77,122)"><text fill="#000000" fill-opacity="1" font-family="Liberation Sans" font-size="10" font-style="normal" font-weight="400" stroke="none" textLength="5.82813" x="-2.90625" xml:space="preserve" y="3.5">+</text></g><defs><clipPath id="clip67"><path d="M-10,-15 L10,-15 L10,5 L-10,5 L-10,-15 z"/></clipPath></defs><g clip-path="url(#clip67)" fill="none" opacity="1" stroke="#000000" stroke-linecap="butt" stroke-linejoin="miter" stroke-miterlimit="2" stroke-opacity="1" stroke-width="1" transform="matrix(1,0,0,1,82,127)"><text fill="#000000" fill-opacity="1" font-family="Liberation Sans" font-size="10" font-style="normal" font-weight="400" stroke="none" textLength="5.82813" x="-2.90625" xml:space="preserve" y="3.5">−</text></g><defs><clipPath id="clip72"><path d="M-71.5,-112.5 L398.359,-112.5 L398.359,151.5 L-71.5,151.5 L-71.5,-112.5 z"/></clipPath></defs><g clip-path="url(#clip72)" fill="none" opacity="1" stroke="#000000" stroke-linecap="butt" stroke-linejoin="miter" stroke-miterlimit="2" stroke-opacity="1" stroke-width="1" transform="matrix(1,0,0,1,71.5,112.5)"><path d="M20,10 C20,15.5228 15.5228,20 10,20 C4.47715,20 0,15.5228 0,10 C0,4.47715 4.47715,0 10,0 C15.5228,0 20,4.47715 20,10 z" fill-rule="nonzero" vector-effect="none"/></g><defs><clipPath id="clip75"><path d="M-307,-2 L162.859,-2 L162.859,262 L-307,262 L-307,-2 z"/></clipPath></defs><g clip-path="url(#clip75)" fill="#ffffff" fill-opacity="1" opacity="1" stroke="none" stroke-opacity="0" transform="matrix(1,0,0,1,307,2)"><path d="M0,0 L5,0 L5,240 L0,240 L0,0 z" fill-rule="evenodd" vector-effect="none"/></g><defs><clipPath id="clip79"><path d="M700,215 L705,215 L705,455 L700,455 L700,215 z"/></clipPath></defs><g clip-path="url(#clip79)" fill="#000000" fill-opacity="1" opacity="1" stroke="none" stroke-opacity="0" transform="matrix(1,0,0,1,-393,-213)"><path d="M700,215 L705,215 L705,455 L700,455 L700,215 z" fill-rule="evenodd" vector-effect="none"/></g><defs><clipPath id="clip84"><path d="M-306.5,-2.5 L163.359,-2.5 L163.359,261.5 L-306.5,261.5 L-306.5,-2.5 z"/></clipPath></defs><g clip-path="url(#clip84)" fill="none" opacity="1" stroke="#000000" stroke-linecap="butt" stroke-linejoin="miter" stroke-miterlimit="2" stroke-opacity="1" stroke-width="1" transform="matrix(1,0,0,1,306.5,2.5)"><path d="M0,0 L5,0 L5,240 L0,240 L0,0 z" fill-rule="evenodd" vector-effect="none"/></g><defs><clipPath id="clip87"><path d="M-437,-136 L32.8594,-136 L32.8594,128 L-437,128 L-437,-136 z"/></clipPath></defs><g clip-path="url(#clip87)" fill="#ffffff" fill-opacity="1" opacity="1" stroke="none" stroke-opacity="0" transform="matrix(1,0,0,1,437,136)"><path d="M0,0 L30,0 L30,32 L0,32 L0,0 z" fill-rule="evenodd" vector-effect="none"/></g><defs><clipPath id="clip91"><path d="M0,0 L31,0 L31,33 L0,33 L0,0 z"/></clipPath></defs><g clip-path="url(#clip91)" fill="none" opacity="1" stroke="none" stroke-opacity="0" transform="matrix(1,0,0,1,436.859,136)"><path d="M0,0 L31,0 L31,33 L0,33 L0,0 z" fill-rule="evenodd" vector-effect="none"/></g><defs><clipPath id="clip101"><path d="M0,0 L33,0 L33,36 L0,36 L0,0 z"/></clipPath></defs><g clip-path="url(#clip101)" fill="none" opacity="1" stroke="#000000" stroke-linecap="round" stroke-linejoin="round" stroke-opacity="1" stroke-width="1.3" transform="matrix(1,0,0,1,435.859,135)"><path d="M7.5,5.5 L25.5,5.5 C26.6046,5.5 27.5,6.45513 27.5,7.63334 L27.5,17.3667 C27.5,18.5449 26.6046,19.5 25.5,19.5 L7.5,19.5 C6.39543,19.5 5.5,18.5449 5.5,17.3667 L5.5,7.63334 C5.5,6.45513 6.39543,5.5 7.5,5.5 z" fill-rule="nonzero" vector-effect="none"/></g><defs><clipPath id="clip118"><path d="M-436.5,-136.5 L33.3594,-136.5 L33.3594,127.5 L-436.5,127.5 L-436.5,-136.5 z"/></clipPath></defs><g clip-path="url(#clip118)" fill="none" opacity="1" stroke="#000000" stroke-linecap="butt" stroke-linejoin="miter" stroke-miterlimit="2" stroke-opacity="1" stroke-width="1" transform="matrix(1,0,0,1,436.5,136.5)"><path d="M0,0 L30,0 L30,32 L0,32 L0,0 z" fill-rule="evenodd" vector-effect="none"/></g><defs><clipPath id="clip124"><path d="M0,0 L8,0 L8,15 L0,15 L0,0 z"/></clipPath></defs><g clip-path="url(#clip124)" fill="none" opacity="1" stroke="#000000" stroke-linecap="square" stroke-linejoin="bevel" stroke-opacity="1" stroke-width="1" transform="matrix(1,0,0,1,448.086,170)"><text fill="#000000" fill-opacity="1" font-family="Liberation Sans" font-size="10" font-style="normal" font-weight="400" stroke="none" textLength="5.54688" x="1" xml:space="preserve" y="11">q</text></g><defs><clipPath id="clip132"><path d="M-362,-196 L107.859,-196 L107.859,68 L-362,68 L-362,-196 z"/></clipPath></defs><g clip-path="url(#clip132)" fill="#ffffff" fill-opacity="1" opacity="1" stroke="none" stroke-opacity="0" transform="matrix(1,0,0,1,362,196)"><path d="M0,0 L30,0 L30,32 L0,32 L0,0 z" fill-rule="evenodd" vector-effect="none"/></g><defs><clipPath id="clip136"><path d="M0,0 L31,0 L31,33 L0,33 L0,0 z"/></clipPath></defs><g clip-path="url(#clip136)" fill="none" opacity="1" stroke="none" stroke-opacity="0" transform="matrix(1,0,0,1,361.859,196)"><path d="M0,0 L31,0 L31,33 L0,33 L0,0 z" fill-rule="evenodd" vector-effect="none"/></g><defs><clipPath id="clip146"><path d="M0,0 L33,0 L33,36 L0,36 L0,0 z"/></clipPath></defs><g clip-path="url(#clip146)" fill="none" opacity="1" stroke="#000000" stroke-linecap="round" stroke-linejoin="round" stroke-opacity="1" stroke-width="1.3" transform="matrix(1,0,0,1,360.859,195)"><path d="M7.5,5.5 L25.5,5.5 C26.6046,5.5 27.5,6.45513 27.5,7.63334 L27.5,17.3667 C27.5,18.5449 26.6046,19.5 25.5,19.5 L7.5,19.5 C6.39543,19.5 5.5,18.5449 5.5,17.3667 L5.5,7.63334 C5.5,6.45513 6.39543,5.5 7.5,5.5 z" fill-rule="nonzero" vector-effect="none"/></g><defs><clipPath id="clip163"><path d="M-361.5,-196.5 L108.359,-196.5 L108.359,67.5 L-361.5,67.5 L-361.5,-196.5 z"/></clipPath></defs><g clip-path="url(#clip163)" fill="none" opacity="1" stroke="#000000" stroke-linecap="butt" stroke-linejoin="miter" stroke-miterlimit="2" stroke-opacity="1" stroke-width="1" transform="matrix(1,0,0,1,361.5,196.5)"><path d="M0,0 L30,0 L30,32 L0,32 L0,0 z" fill-rule="evenodd" vector-effect="none"/></g><defs><clipPath id="clip169"><path d="M0,0 L24,0 L24,15 L0,15 L0,0 z"/></clipPath></defs><g clip-path="url(#clip169)" fill="none" opacity="1" stroke="#000000" stroke-linecap="square" stroke-linejoin="bevel" stroke-opacity="1" stroke-width="1" transform="matrix(1,0,0,1,364.773,230)"><text fill="#000000" fill-opacity="1" font-family="Liberation Sans" font-size="10" font-style="normal" font-weight="400" stroke="none" textLength="22.1719" x="1" xml:space="preserve" y="11">theta</text></g><defs><clipPath id="clip177"><path d="M-367,-22 L102.859,-22 L102.859,242 L-367,242 L-367,-22 z"/></clipPath></defs><g clip-path="url(#clip177)" fill="#ffffff" fill-opacity="1" opacity="1" stroke="none" stroke-opacity="0" transform="matrix(1,0,0,1,367,22)"><path d="M0,0 L20,0 L20,20 L0,20 L0,0 z" fill-rule="evenodd" vector-effect="none"/></g><defs><clipPath id="clip181"><path d="M0,0 L21,0 L21,21 L0,21 L0,0 z"/></clipPath></defs><g clip-path="url(#clip181)" fill="none" opacity="1" stroke="none" stroke-opacity="0" transform="matrix(1,0,0,1,366.859,22)"><path d="M0,0 L21,0 L21,21 L0,21 L0,0 z" fill-rule="evenodd" vector-effect="none"/></g><defs><clipPath id="clip191"><path d="M0,0 L23,0 L23,23 L0,23 L0,0 z"/></clipPath></defs><g clip-path="url(#clip191)" fill="none" opacity="1" stroke="#000000" stroke-linecap="round" stroke-linejoin="round" stroke-opacity="1" stroke-width="1" transform="matrix(1,0,0,1,365.859,20.9999)"><path d="M4.5,6.5 L14.5,6.5 L14.5,16.5 L4.5,16.5" fill-rule="nonzero" vector-effect="none"/></g><defs><clipPath id="clip192"><path d="M0,0 L23,0 L23,23 L0,23 L0,0 z"/></clipPath></defs><g clip-path="url(#clip192)" fill="none" opacity="1" stroke="#000000" stroke-linecap="round" stroke-linejoin="round" stroke-opacity="1" stroke-width="1" transform="matrix(1,0,0,1,365.859,20.9999)"><path d="M1.5,11.5 L13.5,11.5" fill-rule="nonzero" vector-effect="none"/></g><defs><clipPath id="clip209"><path d="M-367,-22 L102.859,-22 L102.859,242 L-367,242 L-367,-22 z"/></clipPath></defs><g clip-path="url(#clip209)" fill="none" opacity="1" stroke="none" stroke-opacity="0" transform="matrix(1,0,0,1,367,22)"><path d="M0,0 L20,0 L20,20 L0,20 L0,0 z" fill-rule="evenodd" vector-effect="none"/></g><defs><clipPath id="clip215"><path d="M0,0 L32,0 L32,15 L0,15 L0,0 z"/></clipPath></defs><g clip-path="url(#clip215)" fill="none" opacity="1" stroke="#000000" stroke-linecap="square" stroke-linejoin="bevel" stroke-opacity="1" stroke-width="1" transform="matrix(1,0,0,1,360.891,44)"><text fill="#000000" fill-opacity="1" font-family="Liberation Sans" font-size="10" font-style="normal" font-weight="400" stroke="none" textLength="29.9375" x="1" xml:space="preserve" y="11">delta u</text></g><defs><clipPath id="clip223"><path d="M-367,-82 L102.859,-82 L102.859,182 L-367,182 L-367,-82 z"/></clipPath></defs><g clip-path="url(#clip223)" fill="#ffffff" fill-opacity="1" opacity="1" stroke="none" stroke-opacity="0" transform="matrix(1,0,0,1,367,82)"><path d="M0,0 L20,0 L20,20 L0,20 L0,0 z" fill-rule="evenodd" vector-effect="none"/></g><defs><clipPath id="clip227"><path d="M0,0 L21,0 L21,21 L0,21 L0,0 z"/></clipPath></defs><g clip-path="url(#clip227)" fill="none" opacity="1" stroke="none" stroke-opacity="0" transform="matrix(1,0,0,1,366.859,82)"><path d="M0,0 L21,0 L21,21 L0,21 L0,0 z" fill-rule="evenodd" vector-effect="none"/></g><defs><clipPath id="clip237"><path d="M0,0 L23,0 L23,23 L0,23 L0,0 z"/></clipPath></defs><g clip-path="url(#clip237)" fill="none" opacity="1" stroke="#000000" stroke-linecap="round" stroke-linejoin="round" stroke-opacity="1" stroke-width="1" transform="matrix(1,0,0,1,365.859,80.9999)"><path d="M4.5,6.5 L14.5,6.5 L14.5,16.5 L4.5,16.5" fill-rule="nonzero" vector-effect="none"/></g><defs><clipPath id="clip238"><path d="M0,0 L23,0 L23,23 L0,23 L0,0 z"/></clipPath></defs><g clip-path="url(#clip238)" fill="none" opacity="1" stroke="#000000" stroke-linecap="round" stroke-linejoin="round" stroke-opacity="1" stroke-width="1" transform="matrix(1,0,0,1,365.859,80.9999)"><path d="M1.5,11.5 L13.5,11.5" fill-rule="nonzero" vector-effect="none"/></g><defs><clipPath id="clip255"><path d="M-367,-82 L102.859,-82 L102.859,182 L-367,182 L-367,-82 z"/></clipPath></defs><g clip-path="url(#clip255)" fill="none" opacity="1" stroke="none" stroke-opacity="0" transform="matrix(1,0,0,1,367,82)"><path d="M0,0 L20,0 L20,20 L0,20 L0,0 z" fill-rule="evenodd" vector-effect="none"/></g><defs><clipPath id="clip261"><path d="M0,0 L7,0 L7,15 L0,15 L0,0 z"/></clipPath></defs><g clip-path="url(#clip261)" fill="none" opacity="1" stroke="#000000" stroke-linecap="square" stroke-linejoin="bevel" stroke-opacity="1" stroke-width="1" transform="matrix(1,0,0,1,373.359,104)"><text fill="#000000" fill-opacity="1" font-family="Liberation Sans" font-size="10" font-style="normal" font-weight="400" stroke="none" textLength="5" x="1" xml:space="preserve" y="11">v</text></g><defs><clipPath id="clip269"><path d="M-7,-107 L462.859,-107 L462.859,157 L-7,157 L-7,-107 z"/></clipPath></defs><g clip-path="url(#clip269)" fill="#ffffff" fill-opacity="1" opacity="1" stroke="none" stroke-opacity="0" transform="matrix(1,0,0,1,7,107)"><path d="M0,0 L30,0 L30,30 L0,30 L0,0 z" fill-rule="evenodd" vector-effect="none"/></g><defs><clipPath id="clip273"><path d="M0,0 L31,0 L31,31 L0,31 L0,0 z"/></clipPath></defs><g clip-path="url(#clip273)" fill="none" opacity="1" stroke="none" stroke-opacity="0" transform="matrix(1,0,0,1,6.85938,107)"><path d="M0,0 L31,0 L31,31 L0,31 L0,0 z" fill-rule="evenodd" vector-effect="none"/></g><defs><clipPath id="clip283"><path d="M-1,-1 L32,-1 L32,32 L-1,32 L-1,-1 z"/></clipPath></defs><g clip-path="url(#clip283)" fill="#000000" fill-opacity="1" opacity="1" stroke="none" stroke-opacity="0" transform="matrix(1,0,0,1,6.85938,107)"><path d="M10.2344,11.3594 C9.72396,11.3594 9.34115,11.6094 9.08594,12.1094 C8.83073,12.6094 8.70312,13.3594 8.70312,14.3594 C8.70312,15.3594 8.83073,16.1094 9.08594,16.6094 C9.34115,17.1094 9.72396,17.3594 10.2344,17.3594 C10.7448,17.3594 11.1276,17.1094 11.3828,16.6094 C11.638,16.1094 11.7656,15.3594 11.7656,14.3594 C11.7656,13.3594 11.638,12.6094 11.3828,12.1094 C11.1276,11.6094 10.7448,11.3594 10.2344,11.3594 M10.2344,10.5781 C11.0469,10.5781 11.6693,10.901 12.1016,11.5469 C12.5339,12.1927 12.75,13.1302 12.75,14.3594 C12.75,15.5885 12.5339,16.526 12.1016,17.1719 C11.6693,17.8177 11.0469,18.1406 10.2344,18.1406 C9.41146,18.1406 8.78385,17.8177 8.35156,17.1719 C7.91927,16.526 7.70312,15.5885 7.70312,14.3594 C7.70312,13.1302 7.91927,12.1927 8.35156,11.5469 C8.78385,10.901 9.41146,10.5781 10.2344,10.5781 M14.4844,16.7656 L15.5156,16.7656 L15.5156,18 L14.4844,18 L14.4844,16.7656 M17.6562,10.7031 L21.5312,10.7031 L21.5312,11.5469 L18.5625,11.5469 L18.5625,13.3281 C18.7083,13.276 18.8516,13.2396 18.9922,13.2188 C19.1328,13.1979 19.276,13.1875 19.4219,13.1875 C20.2344,13.1875 20.8776,13.4089 21.3516,13.8516 C21.8255,14.2943 22.0625,14.8958 22.0625,15.6562 C22.0625,16.4479 21.8203,17.0599 21.3359,17.4922 C20.8516,17.9245 20.1615,18.1406 19.2656,18.1406 C18.9635,18.1406 18.6536,18.1146 18.3359,18.0625 C18.0182,18.0104 17.6927,17.9323 17.3594,17.8281 L17.3594,16.8438 C17.651,17 17.9531,17.1172 18.2656,17.1953 C18.5781,17.2734 18.9062,17.3125 19.25,17.3125 C19.8125,17.3125 20.2578,17.1641 20.5859,16.8672 C20.9141,16.5703 21.0781,16.1667 21.0781,15.6562 C21.0781,15.1562 20.9141,14.7578 20.5859,14.4609 C20.2578,14.1641 19.8125,14.0156 19.25,14.0156 C18.9896,14.0156 18.7266,14.0443 18.4609,14.1016 C18.1953,14.1589 17.9271,14.25 17.6562,14.375 L17.6562,10.7031" fill-rule="nonzero" vector-effect="none"/></g><defs><clipPath id="clip300"><path d="M-6.5,-107.5 L463.359,-107.5 L463.359,156.5 L-6.5,156.5 L-6.5,-107.5 z"/></clipPath></defs><g clip-path="url(#clip300)" fill="none" opacity="1" stroke="#000000" stroke-linecap="butt" stroke-linejoin="miter" stroke-miterlimit="2" stroke-opacity="1" stroke-width="1" transform="matrix(1,0,0,1,6.5,107.5)"><path d="M0,0 L30,0 L30,30 L0,30 L0,0 z" fill-rule="evenodd" vector-effect="none"/></g><defs><clipPath id="clip306"><path d="M0,0 L40,0 L40,15 L0,15 L0,0 z"/></clipPath></defs><g clip-path="url(#clip306)" fill="none" opacity="1" stroke="#000000" stroke-linecap="square" stroke-linejoin="bevel" stroke-opacity="1" stroke-width="1" transform="matrix(1,0,0,1,2,139)"><text fill="#000000" fill-opacity="1" font-family="Liberation Sans" font-size="10" font-style="normal" font-weight="400" stroke="none" textLength="37.7188" x="1" xml:space="preserve" y="11">Arfagem</text></g><defs><clipPath id="clip314"><path d="M-122,-107 L347.859,-107 L347.859,157 L-122,157 L-122,-107 z"/></clipPath></defs><g clip-path="url(#clip314)" fill="#ffffff" fill-opacity="1" opacity="1" stroke="none" stroke-opacity="0" transform="matrix(1,0,0,1,122,107)"><path d="M0,0 L30,15 L0,30 L0,0 z" fill-rule="nonzero" vector-effect="none"/></g><defs><clipPath id="clip318"><path d="M0,0 L30,0 L30,30 L0,30 L0,0 z"/></clipPath></defs><g clip-path="url(#clip318)" fill="none" opacity="1" stroke="none" stroke-opacity="0" transform="matrix(1,0,0,1,121.859,107)"><path d="M0,0 L30,15 L0,30 L0,0 z" fill-rule="nonzero" vector-effect="none"/></g><defs><clipPath id="clip328"><path d="M5,-2 L39,-2 L39,32 L5,32 L5,-2 z"/></clipPath></defs><g clip-path="url(#clip328)" fill="#000000" fill-opacity="1" opacity="1" stroke="none" stroke-opacity="0" transform="matrix(1,0,0,1,115.359,107.5)"><path d="M9.96875,10.7031 L10.9531,10.7031 L10.9531,13.7969 L14.2188,10.7031 L15.5,10.7031 L11.875,14.1094 L15.75,18 L14.4531,18 L10.9531,14.4844 L10.9531,18 L9.96875,18 L9.96875,10.7031 M20.4062,12.7344 L20.4062,13.5781 C20.1562,13.4427 19.9036,13.3385 19.6484,13.2656 C19.3932,13.1927 19.1354,13.1562 18.875,13.1562 C18.2917,13.1562 17.8385,13.3411 17.5156,13.7109 C17.1927,14.0807 17.0312,14.599 17.0312,15.2656 C17.0312,15.9323 17.1927,16.4505 17.5156,16.8203 C17.8385,17.1901 18.2917,17.375 18.875,17.375 C19.1354,17.375 19.3932,17.3411 19.6484,17.2734 C19.9036,17.2057 20.1562,17.099 20.4062,16.9531 L20.4062,17.7969 C20.1562,17.9115 19.8984,17.9974 19.6328,18.0547 C19.3672,18.112 19.0833,18.1406 18.7812,18.1406 C17.9583,18.1406 17.3021,17.8828 16.8125,17.3672 C16.3229,16.8516 16.0781,16.151 16.0781,15.2656 C16.0781,14.3802 16.3255,13.6823 16.8203,13.1719 C17.3151,12.6615 17.9844,12.4062 18.8281,12.4062 C19.1094,12.4062 19.3828,12.4323 19.6484,12.4844 C19.9141,12.5365 20.1667,12.6198 20.4062,12.7344" fill-rule="nonzero" vector-effect="none"/></g><defs><clipPath id="clip345"><path d="M-121.5,-107.5 L348.359,-107.5 L348.359,156.5 L-121.5,156.5 L-121.5,-107.5 z"/></clipPath></defs><g clip-path="url(#clip345)" fill="none" opacity="1" stroke="#000000" stroke-linecap="butt" stroke-linejoin="miter" stroke-miterlimit="2" stroke-opacity="1" stroke-width="1" transform="matrix(1,0,0,1,121.5,107.5)"><path d="M0,0 L30,15 L0,30 L0,0 z" fill-rule="nonzero" vector-effect="none"/></g><defs><clipPath id="clip351"><path d="M0,0 L55,0 L55,15 L0,15 L0,0 z"/></clipPath></defs><g clip-path="url(#clip351)" fill="none" opacity="1" stroke="#000000" stroke-linecap="square" stroke-linejoin="bevel" stroke-opacity="1" stroke-width="1" transform="matrix(1,0,0,1,109.289,139)"><text fill="#000000" fill-opacity="1" font-family="Liberation Sans" font-size="10" font-style="normal" font-weight="400" stroke="none" textLength="52.1406" x="1.5" xml:space="preserve" y="11">Controlador</text></g><defs><clipPath id="clip359"><path d="M-72,-122 L397.859,-122 L397.859,142 L-72,142 L-72,-122 z"/></clipPath></defs><g clip-path="url(#clip359)" fill="#000000" fill-opacity="1" opacity="1" stroke="none" stroke-opacity="0" transform="matrix(1,0,0,1,72,122)"><path d="M0,0 L-8,-4 L-8,4 L0,0 z" fill-rule="nonzero" vector-effect="none"/></g><defs><clipPath id="clip362"><path d="M393.141,213 L863,213 L863,477 L393.141,477 L393.141,213 z"/></clipPath></defs><g clip-path="url(#clip362)" fill="none" opacity="1" stroke="#000000" stroke-linecap="butt" stroke-linejoin="miter" stroke-miterlimit="2" stroke-opacity="1" stroke-width="1" transform="matrix(1,0,0,1,-393.141,-213)"><path d="M430.641,335.5 L457.641,335.5" fill-rule="evenodd" vector-effect="none"/></g><defs><clipPath id="clip365"><path d="M-122,-122 L347.859,-122 L347.859,142 L-122,142 L-122,-122 z"/></clipPath></defs><g clip-path="url(#clip365)" fill="#000000" fill-opacity="1" opacity="1" stroke="none" stroke-opacity="0" transform="matrix(1,0,0,1,122,122)"><path d="M0,0 L-8,-4 L-8,4 L0,0 z" fill-rule="nonzero" vector-effect="none"/></g><defs><clipPath id="clip368"><path d="M393.141,213 L863,213 L863,477 L393.141,477 L393.141,213 z"/></clipPath></defs><g clip-path="url(#clip368)" fill="none" opacity="1" stroke="#000000" stroke-linecap="butt" stroke-linejoin="miter" stroke-miterlimit="2" stroke-opacity="1" stroke-width="1" transform="matrix(1,0,0,1,-393.141,-213)"><path d="M485.641,335.5 L507.641,335.5" fill-rule="evenodd" vector-effect="none"/></g><defs><clipPath id="clip371"><path d="M-212,-122 L257.859,-122 L257.859,142 L-212,142 L-212,-122 z"/></clipPath></defs><g clip-path="url(#clip371)" fill="#000000" fill-opacity="1" opacity="1" stroke="none" stroke-opacity="0" transform="matrix(1,0,0,1,212,122)"><path d="M0,0 L-8,-4 L-8,4 L0,0 z" fill-rule="nonzero" vector-effect="none"/></g><defs><clipPath id="clip374"><path d="M393.141,213 L863,213 L863,477 L393.141,477 L393.141,213 z"/></clipPath></defs><g clip-path="url(#clip374)" fill="none" opacity="1" stroke="#000000" stroke-linecap="butt" stroke-linejoin="miter" stroke-miterlimit="2" stroke-opacity="1" stroke-width="1" transform="matrix(1,0,0,1,-393.141,-213)"><path d="M545.641,335.5 L597.641,335.5" fill-rule="evenodd" vector-effect="none"/></g><defs><clipPath id="clip377"><path d="M-307,-122 L162.859,-122 L162.859,142 L-307,142 L-307,-122 z"/></clipPath></defs><g clip-path="url(#clip377)" fill="#000000" fill-opacity="1" opacity="1" stroke="none" stroke-opacity="0" transform="matrix(1,0,0,1,307,122)"><path d="M0,0 L-8,-4 L-8,4 L0,0 z" fill-rule="nonzero" vector-effect="none"/></g><defs><clipPath id="clip380"><path d="M393.141,213 L863,213 L863,477 L393.141,477 L393.141,213 z"/></clipPath></defs><g clip-path="url(#clip380)" fill="none" opacity="1" stroke="#000000" stroke-linecap="butt" stroke-linejoin="miter" stroke-miterlimit="2" stroke-opacity="1" stroke-width="1" transform="matrix(1,0,0,1,-393.141,-213)"><path d="M665.641,335.5 L692.641,335.5" fill-rule="evenodd" vector-effect="none"/></g><defs><clipPath id="clip385"><path d="M393.141,213 L863,213 L863,477 L393.141,477 L393.141,213 z"/></clipPath></defs><g clip-path="url(#clip385)" fill="none" opacity="1" stroke="#000000" stroke-linecap="butt" stroke-linejoin="miter" stroke-miterlimit="2" stroke-opacity="1" stroke-width="1" transform="matrix(1,0,0,1,-393.141,-213)"><path d="M705.641,365.5 L805.641,365.5" fill-rule="evenodd" vector-effect="none"/></g><defs><clipPath id="clip388"><path d="M-437,-152 L32.8594,-152 L32.8594,112 L-437,112 L-437,-152 z"/></clipPath></defs><g clip-path="url(#clip388)" fill="#000000" fill-opacity="1" opacity="1" stroke="none" stroke-opacity="0" transform="matrix(1,0,0,1,437,152)"><path d="M0,0 L-8,-4 L-8,4 L0,0 z" fill-rule="nonzero" vector-effect="none"/></g><defs><clipPath id="clip391"><path d="M393.141,213 L863,213 L863,477 L393.141,477 L393.141,213 z"/></clipPath></defs><g clip-path="url(#clip391)" fill="none" opacity="1" stroke="#000000" stroke-linecap="butt" stroke-linejoin="miter" stroke-miterlimit="2" stroke-opacity="1" stroke-width="1" transform="matrix(1,0,0,1,-393.141,-213)"><path d="M805.641,365.5 L822.641,365.5" fill-rule="evenodd" vector-effect="none"/></g><defs><clipPath id="clip394"><path d="M131.859,-81.8594 L131.859,388 L-132.141,388 L-132.141,-81.8594 L131.859,-81.8594 z"/></clipPath></defs><g clip-path="url(#clip394)" fill="#000000" fill-opacity="1" opacity="1" stroke="none" stroke-opacity="0" transform="matrix(6.12323e-17,-1,1,6.12323e-17,81.8594,131.859)"><path d="M0,0 L-8,-4 L-8,4 L0,0 z" fill-rule="nonzero" vector-effect="none"/></g><defs><clipPath id="clip397"><path d="M393.141,213 L863,213 L863,477 L393.141,477 L393.141,213 z"/></clipPath></defs><g clip-path="url(#clip397)" fill="none" opacity="1" stroke="#000000" stroke-linecap="butt" stroke-linejoin="miter" stroke-miterlimit="2" stroke-opacity="1" stroke-width="1" transform="matrix(1,0,0,1,-393.141,-213)"><path d="M805.641,365.5 L805.641,475.5 L475.641,475.5 L475.641,353.5" fill-rule="evenodd" vector-effect="none"/></g><defs><clipPath id="clip400"><path d="M-411.859,-152 L58,-152 L58,112 L-411.859,112 L-411.859,-152 z"/></clipPath></defs><g clip-path="url(#clip400)" fill="#000000" fill-opacity="1" opacity="1" stroke="none" stroke-opacity="0" transform="matrix(1,0,0,1,411.859,152)"><path d="M3.14062,0.5 C3.14062,1.88071 2.02134,3 0.640625,3 C-0.740087,3 -1.85938,1.88071 -1.85938,0.5 C-1.85938,-0.880712 -0.740087,-2 0.640625,-2 C2.02134,-2 3.14062,-0.880712 3.14062,0.5 z" fill-rule="evenodd" vector-effect="none"/></g><defs><clipPath id="clip403"><path d="M-367,-92 L102.859,-92 L102.859,172 L-367,172 L-367,-92 z"/></clipPath></defs><g clip-path="url(#clip403)" fill="#000000" fill-opacity="1" opacity="1" stroke="none" stroke-opacity="0" transform="matrix(1,0,0,1,367,92)"><path d="M0,0 L-8,-4 L-8,4 L0,0 z" fill-rule="nonzero" vector-effect="none"/></g><defs><clipPath id="clip406"><path d="M393.141,213 L863,213 L863,477 L393.141,477 L393.141,213 z"/></clipPath></defs><g clip-path="url(#clip406)" fill="none" opacity="1" stroke="#000000" stroke-linecap="butt" stroke-linejoin="miter" stroke-miterlimit="2" stroke-opacity="1" stroke-width="1" transform="matrix(1,0,0,1,-393.141,-213)"><path d="M705.641,305.5 L752.641,305.5" fill-rule="evenodd" vector-effect="none"/></g><defs><clipPath id="clip409"><path d="M-367,-32 L102.859,-32 L102.859,232 L-367,232 L-367,-32 z"/></clipPath></defs><g clip-path="url(#clip409)" fill="#000000" fill-opacity="1" opacity="1" stroke="none" stroke-opacity="0" transform="matrix(1,0,0,1,367,32)"><path d="M0,0 L-8,-4 L-8,4 L0,0 z" fill-rule="nonzero" vector-effect="none"/></g><defs><clipPath id="clip412"><path d="M393.141,213 L863,213 L863,477 L393.141,477 L393.141,213 z"/></clipPath></defs><g clip-path="url(#clip412)" fill="none" opacity="1" stroke="#000000" stroke-linecap="butt" stroke-linejoin="miter" stroke-miterlimit="2" stroke-opacity="1" stroke-width="1" transform="matrix(1,0,0,1,-393.141,-213)"><path d="M705.641,245.5 L752.641,245.5" fill-rule="evenodd" vector-effect="none"/></g><defs><clipPath id="clip415"><path d="M-362,-212 L107.859,-212 L107.859,52 L-362,52 L-362,-212 z"/></clipPath></defs><g clip-path="url(#clip415)" fill="#000000" fill-opacity="1" opacity="1" stroke="none" stroke-opacity="0" transform="matrix(1,0,0,1,362,212)"><path d="M0,0 L-8,-4 L-8,4 L0,0 z" fill-rule="nonzero" vector-effect="none"/></g><defs><clipPath id="clip418"><path d="M393.141,213 L863,213 L863,477 L393.141,477 L393.141,213 z"/></clipPath></defs><g clip-path="url(#clip418)" fill="none" opacity="1" stroke="#000000" stroke-linecap="butt" stroke-linejoin="miter" stroke-miterlimit="2" stroke-opacity="1" stroke-width="1" transform="matrix(1,0,0,1,-393.141,-213)"><path d="M705.641,425.5 L747.641,425.5" fill-rule="evenodd" vector-effect="none"/></g></g><!--generated on arch @ 2024-04-19 14:35:42 -03--></svg>
